<svg width="178" height="45" fill="none" xmlns="http://www.w3.org/2000/svg"><path d="M19.99 30.717h-1.68V20.589h-3.505v10.128h-1.68V10.653h1.68v8.352h3.504v-8.352h1.68v20.064Zm-18.577-19.8h8.976l-3.36 19.56H5.205L8.277 12.5H1.413v-1.584Zm38.53 16.2H26.19v2.544h14.112v1.584H24.51v-5.712h13.752v-2.16H24.51v-1.584h15.432v5.328Zm-16.224-7.128v-9.192h1.68v3.264h7.032v-3.264h1.68v9.192H23.719Zm19.655-3.912h-3.431v4.392h-1.68v-9.816h1.68v3.84h3.431v1.584ZM32.43 18.405v-2.76h-7.032v2.76h7.033Zm23.362 2.784c0 .32-.024.76-.072 1.32-.048.56-.112 1.152-.192 1.776a31.06 31.06 0 0 1-.288 1.824c-.096.592-.2 1.088-.312 1.488-.208.672-.488 1.208-.84 1.608-.352.4-.76.704-1.224.912a4.889 4.889 0 0 1-1.464.456c-.512.08-1.032.12-1.56.12-1.024 0-1.88-.128-2.568-.384-.672-.256-1.208-.624-1.608-1.104a3.555 3.555 0 0 1-.792-1.656c-.128-.624-.144-1.312-.048-2.064.048-.4.096-.84.144-1.32.048-.48.096-.944.144-1.392.064-.464.12-.896.168-1.296.064-.416.128-.76.192-1.032.16-.768.424-1.392.792-1.872.384-.48.824-.856 1.32-1.128a5.042 5.042 0 0 1 1.608-.552 10.494 10.494 0 0 1 1.728-.144c.848 0 1.584.112 2.208.336.624.224 1.136.536 1.536.936.416.4.712.872.888 1.416a4.52 4.52 0 0 1 .24 1.752Zm-2.28 5.112a34.395 34.395 0 0 0 .552-4.776c.032-.672-.04-1.216-.216-1.632-.16-.416-.392-.736-.696-.96-.304-.24-.656-.4-1.056-.48-.4-.08-.824-.12-1.272-.12-.32 0-.664.024-1.032.072a3.485 3.485 0 0 0-1.032.312 2.64 2.64 0 0 0-.912.744c-.272.32-.48.752-.624 1.296-.08.32-.16.712-.24 1.176-.064.448-.128.92-.192 1.416l-.144 1.416c-.048.464-.08.856-.096 1.176-.048.624.008 1.136.168 1.536.176.416.416.744.72.984.32.24.688.408 1.104.504.416.096.84.144 1.272.144.352 0 .72-.032 1.104-.096.384-.064.744-.2 1.08-.408a2.89 2.89 0 0 0 .936-.84c.272-.368.464-.856.576-1.464Zm11.472-4.68h-3.432v9.096h-1.68V10.653h1.68v9.384h3.432v1.584Zm-20.616-6v-1.584h5.496l.72-3.696h1.824l-.72 3.696h5.232v1.584H44.368Zm30.49 1.632v11.88H85.2v1.584H65.833v-1.584h7.344v-11.88h1.68Zm-7.753-6.504h16.488l-1.632 13.416h-1.776l1.44-11.832h-14.52v-1.584Zm26.09.168h11.255l-3.264 19.56h-1.8l2.976-17.976h-9.168v-1.584Zm17.687 19.8h-1.68V10.653h1.68v20.064Zm21.322-10.704h-7.296v2.16h8.88v1.584h-19.392v-1.584h8.832v-2.16h-6.936v-5.496h13.896V12.26h-13.872v-1.584h15.552V16.1h-13.896v2.328h14.232v1.584Zm-2.016 7.392h-14.136V25.82h15.816v5.4h-1.68v-3.816Zm16.26-6.216c0 .32-.024.76-.072 1.32-.048.56-.112 1.152-.192 1.776a31.06 31.06 0 0 1-.288 1.824c-.096.592-.2 1.088-.312 1.488-.208.672-.488 1.208-.84 1.608-.352.4-.76.704-1.224.912a4.889 4.889 0 0 1-1.464.456c-.512.08-1.032.12-1.56.12-1.024 0-1.88-.128-2.568-.384-.672-.256-1.208-.624-1.608-1.104a3.555 3.555 0 0 1-.792-1.656c-.128-.624-.144-1.312-.048-2.064.048-.4.096-.84.144-1.32.048-.48.096-.944.144-1.392.064-.464.12-.896.168-1.296.064-.416.128-.76.192-1.032.16-.768.424-1.392.792-1.872.384-.48.824-.856 1.32-1.128a5.042 5.042 0 0 1 1.608-.552 10.494 10.494 0 0 1 1.728-.144c.848 0 1.584.112 2.208.336.624.224 1.136.536 1.536.936.416.4.712.872.888 1.416a4.52 4.52 0 0 1 .24 1.752Zm-2.28 5.112a34.395 34.395 0 0 0 .552-4.776c.032-.672-.04-1.216-.216-1.632-.16-.416-.392-.736-.696-.96-.304-.24-.656-.4-1.056-.48-.4-.08-.824-.12-1.272-.12-.32 0-.664.024-1.032.072a3.485 3.485 0 0 0-1.032.312 2.64 2.64 0 0 0-.912.744c-.272.32-.48.752-.624 1.296-.08.32-.16.712-.24 1.176-.064.448-.128.92-.192 1.416l-.144 1.416c-.048.464-.08.856-.096 1.176-.048.624.008 1.136.168 1.536.176.416.416.744.72.984.32.24.688.408 1.104.504.416.096.84.144 1.272.144.352 0 .72-.032 1.104-.096.384-.064.744-.2 1.08-.408a2.89 2.89 0 0 0 .936-.84c.272-.368.464-.856.576-1.464Zm11.472-4.68h-3.432v9.096h-1.68V10.653h1.68v9.384h3.432v1.584Zm-20.616-6v-1.584h5.496l.72-3.696h1.824l-.72 3.696h5.232v1.584h-12.552Zm21.874-4.704h11.256l-3.264 19.56h-1.8l2.976-17.976h-9.168v-1.584Zm17.688 19.8h-1.68V10.653h1.68v20.064ZM27.936 41.86v-8.18h.7v8.18h-.7Zm2.732 0h-.75V35.6h.75v6.26Zm-.85-7.19v-.9h.95v.9h-.95Zm3.822-1.17v2.44h1.65v.66h-1.65v3.64c0 .3.083.557.25.77.166.22.44.33.82.33h.69v.63h-.58c-.38 0-.694-.05-.94-.15-.24-.1-.434-.237-.58-.41a1.484 1.484 0 0 1-.29-.63 3.69 3.69 0 0 1-.08-.8V36.6h-1.46v-.66h1.46V33.5h.71Zm4.296 0v2.44h1.65v.66h-1.65v3.64c0 .3.084.557.25.77.167.22.44.33.82.33h.69v.63h-.58c-.38 0-.693-.05-.94-.15-.24-.1-.433-.237-.58-.41a1.485 1.485 0 0 1-.29-.63 3.697 3.697 0 0 1-.08-.8V36.6h-1.46v-.66h1.46V33.5h.71Zm2.607 8.36v-8.18h.7v8.18h-.7Zm7.343-1.77c-.06.34-.174.63-.34.87-.16.24-.364.437-.61.59a2.65 2.65 0 0 1-.83.34c-.314.073-.65.11-1.01.11-.46 0-.867-.063-1.22-.19a2.38 2.38 0 0 1-.88-.55 2.259 2.259 0 0 1-.53-.86c-.12-.34-.18-.72-.18-1.14v-1.14c0-.42.063-.797.19-1.13.126-.34.31-.63.55-.87.24-.24.536-.423.89-.55.353-.133.76-.2 1.22-.2.453 0 .856.067 1.21.2.36.127.66.31.9.55.246.233.433.52.56.86.126.333.19.71.19 1.13v.81h-5.01v.23c0 .287.026.563.08.83.053.26.153.49.3.69.153.207.366.37.64.49.28.12.643.18 1.09.18.353 0 .653-.043.9-.13.253-.08.463-.183.63-.31.166-.12.293-.253.38-.4a1.26 1.26 0 0 0 .18-.41h.7Zm-4.9-1.83h4.27v-.31c0-.28-.05-.537-.15-.77-.1-.24-.244-.443-.43-.61a1.813 1.813 0 0 0-.67-.4c-.26-.093-.55-.14-.87-.14-.32 0-.614.047-.88.14a1.998 1.998 0 0 0-.68.39 1.797 1.797 0 0 0-.44.6c-.1.233-.15.49-.15.77v.33Zm9.449-4.76v2.87c.233-.293.53-.533.89-.72.36-.187.78-.28 1.26-.28.446 0 .836.067 1.17.2.34.127.623.31.85.55.226.233.393.52.5.86.113.333.17.71.17 1.13v1.14c0 .42-.054.8-.16 1.14-.1.34-.264.63-.49.87-.227.24-.517.423-.87.55-.354.133-.784.2-1.29.2-.48 0-.887-.093-1.22-.28a2.466 2.466 0 0 1-.81-.71v.03l-.12.81h-.58V33.5h.7Zm2.08 2.53a2.035 2.035 0 0 0-1.48.61c-.18.18-.324.39-.43.63a1.858 1.858 0 0 0-.17.73v1.27c0 .347.063.65.19.91.126.26.286.477.48.65.2.173.42.303.66.39.246.087.49.13.73.13.226 0 .463-.027.71-.08.246-.053.47-.153.67-.3.206-.14.373-.34.5-.6.133-.26.2-.6.2-1.02v-1.33c0-.26-.034-.51-.1-.75-.067-.24-.18-.45-.34-.63a1.612 1.612 0 0 0-.64-.44c-.26-.113-.587-.17-.98-.17Zm4.55 7.93 1.2-2.8-2.72-5.56h.81l2.28 4.69 2.03-4.69h.8l-3.62 8.36h-.78Zm7.982-2.1v-8.18h.7v8.18h-.7Zm2.733 0h-.75V35.6h.75v6.26Zm-.85-7.19v-.9h.95v.9h-.95Zm3.82-1.17v2.44h1.65v.66h-1.65v3.64c0 .3.084.557.25.77.168.22.44.33.82.33h.69v.63h-.58c-.38 0-.692-.05-.94-.15-.24-.1-.432-.237-.58-.41a1.484 1.484 0 0 1-.29-.63 3.697 3.697 0 0 1-.08-.8V36.6h-1.46v-.66h1.46V33.5h.71Zm4.298 0v2.44h1.65v.66h-1.65v3.64c0 .3.083.557.25.77.166.22.44.33.82.33h.69v.63h-.58c-.38 0-.694-.05-.94-.15-.24-.1-.434-.237-.58-.41a1.484 1.484 0 0 1-.29-.63 3.69 3.69 0 0 1-.08-.8V36.6h-1.46v-.66h1.46V33.5h.71Zm2.607 8.36v-8.18h.7v8.18h-.7Zm7.342-1.77c-.06.34-.173.63-.34.87-.16.24-.363.437-.61.59a2.65 2.65 0 0 1-.83.34c-.313.073-.65.11-1.01.11-.46 0-.867-.063-1.22-.19a2.38 2.38 0 0 1-.88-.55 2.258 2.258 0 0 1-.53-.86c-.12-.34-.18-.72-.18-1.14v-1.14c0-.42.063-.797.19-1.13.127-.34.31-.63.55-.87.24-.24.537-.423.89-.55.353-.133.76-.2 1.22-.2.453 0 .857.067 1.21.2.36.127.66.31.9.55.247.233.433.52.56.86.127.333.19.71.19 1.13v.81h-5.01v.23c0 .287.027.563.08.83.053.26.153.49.3.69.153.207.367.37.64.49.28.12.643.18 1.09.18.353 0 .653-.043.9-.13.253-.08.463-.183.63-.31a1.34 1.34 0 0 0 .38-.4c.093-.147.153-.283.18-.41h.7Zm-4.9-1.83h4.27v-.31c0-.28-.05-.537-.15-.77-.1-.24-.243-.443-.43-.61a1.814 1.814 0 0 0-.67-.4c-.26-.093-.55-.14-.87-.14-.32 0-.613.047-.88.14a1.996 1.996 0 0 0-.68.39 1.794 1.794 0 0 0-.44.6c-.1.233-.15.49-.15.77v.33Zm9.45-4.76v2.87c.232-.293.53-.533.89-.72.36-.187.78-.28 1.26-.28.446 0 .836.067 1.17.2.34.127.622.31.85.55.226.233.392.52.5.86.112.333.17.71.17 1.13v1.14c0 .42-.054.8-.16 1.14-.1.34-.264.63-.49.87a2.19 2.19 0 0 1-.87.55c-.354.133-.784.2-1.29.2-.48 0-.888-.093-1.22-.28a2.464 2.464 0 0 1-.81-.71v.03l-.12.81h-.58V33.5h.7Zm2.08 2.53a2.034 2.034 0 0 0-1.48.61c-.18.18-.324.39-.43.63a1.855 1.855 0 0 0-.17.73v1.27c0 .347.062.65.19.91.126.26.286.477.48.65.2.173.42.303.66.39.246.087.49.13.73.13.226 0 .462-.027.71-.08.246-.053.47-.153.67-.3.206-.14.372-.34.5-.6.132-.26.2-.6.2-1.02v-1.33c0-.26-.034-.51-.1-.75-.068-.24-.18-.45-.34-.63a1.613 1.613 0 0 0-.64-.44c-.26-.113-.588-.17-.98-.17Zm8.641 5.01c-.113.16-.257.3-.43.42-.167.12-.357.22-.57.3-.207.087-.427.15-.66.19-.227.04-.453.06-.68.06-.36 0-.693-.057-1-.17a2.332 2.332 0 0 1-.8-.49 2.286 2.286 0 0 1-.52-.78 2.836 2.836 0 0 1-.18-1.04V35.6h.7v3.85c0 .24.03.473.09.7.067.227.17.427.31.6.147.18.34.323.58.43.24.113.537.17.89.17.44 0 .803-.07 1.09-.21.293-.14.527-.317.7-.53.18-.213.303-.447.37-.7.073-.26.11-.507.11-.74V35.6h.7v6.26h-.66l-.04-.82Zm3.666-7.54v2.44h1.65v.66h-1.65v3.64c0 .3.084.557.25.77.167.22.44.33.82.33h.69v.63h-.58c-.38 0-.693-.05-.94-.15a1.5 1.5 0 0 1-.58-.41 1.492 1.492 0 0 1-.29-.63 3.716 3.716 0 0 1-.08-.8V36.6h-1.46v-.66h1.46V33.5h.71Zm5.763 6.27c.006.273.06.51.16.71.106.193.25.353.43.48s.39.22.63.28c.246.067.516.1.81.1.606 0 1.076-.087 1.41-.26.34-.167.506-.457.5-.87a.928.928 0 0 0-.16-.52 1.095 1.095 0 0 0-.4-.35 2.998 2.998 0 0 0-.63-.24 9.594 9.594 0 0 0-.82-.18c-.24-.04-.504-.093-.79-.16a3.302 3.302 0 0 1-.78-.29 1.987 1.987 0 0 1-.61-.52c-.16-.213-.24-.487-.24-.82 0-.253.06-.487.18-.7.126-.213.293-.397.5-.55.213-.16.463-.283.75-.37.286-.093.596-.14.93-.14.766 0 1.383.173 1.85.52.473.34.733.877.78 1.61h-.7c-.027-.2-.077-.39-.15-.57a1.194 1.194 0 0 0-.32-.47 1.413 1.413 0 0 0-.56-.31 2.717 2.717 0 0 0-.87-.12c-.294 0-.547.033-.76.1-.214.06-.39.14-.53.24a.98.98 0 0 0-.3.35.843.843 0 0 0-.1.4c0 .16.04.3.12.42.086.113.196.213.33.3.133.08.28.15.44.21.166.06.33.11.49.15.16.04.31.073.45.1.14.02.253.04.34.06.313.067.606.147.88.24.273.087.513.2.72.34a1.394 1.394 0 0 1 .66 1.23c0 .34-.067.627-.2.86a1.53 1.53 0 0 1-.54.57c-.227.147-.5.25-.82.31-.314.067-.664.1-1.05.1-.36 0-.704-.04-1.03-.12-.32-.08-.607-.21-.86-.39a2.038 2.038 0 0 1-.6-.7c-.147-.28-.227-.623-.24-1.03h.7Zm7.275-6.27v2.44h1.65v.66h-1.65v3.64c0 .3.083.557.25.77.166.22.44.33.82.33h.69v.63h-.58c-.38 0-.694-.05-.94-.15-.24-.1-.434-.237-.58-.41a1.48 1.48 0 0 1-.29-.63 3.654 3.654 0 0 1-.08-.8V36.6h-1.46v-.66h1.46V33.5h.71Zm7.752 6.59c-.06.34-.174.63-.34.87-.16.24-.364.437-.61.59-.24.153-.517.267-.83.34a4.43 4.43 0 0 1-1.01.11c-.46 0-.867-.063-1.22-.19a2.377 2.377 0 0 1-.88-.55 2.25 2.25 0 0 1-.53-.86c-.12-.34-.18-.72-.18-1.14v-1.14c0-.42.063-.797.19-1.13.126-.34.31-.63.55-.87.24-.24.536-.423.89-.55.353-.133.76-.2 1.22-.2.453 0 .856.067 1.21.2.36.127.66.31.9.55.246.233.433.52.56.86.126.333.19.71.19 1.13v.81h-5.01v.23c0 .287.026.563.08.83.053.26.153.49.3.69.153.207.366.37.64.49.28.12.643.18 1.09.18.353 0 .653-.043.9-.13.253-.08.463-.183.63-.31.166-.12.293-.253.38-.4.093-.147.153-.283.18-.41h.7Zm-4.9-1.83h4.27v-.31c0-.28-.05-.537-.15-.77a1.67 1.67 0 0 0-.43-.61 1.82 1.82 0 0 0-.67-.4c-.26-.093-.55-.14-.87-.14-.32 0-.614.047-.88.14a1.988 1.988 0 0 0-.68.39 1.782 1.782 0 0 0-.44.6c-.1.233-.15.49-.15.77v.33Zm5.813 1.82c0-.647.207-1.12.62-1.42.414-.307 1.054-.46 1.92-.46h2.21v-.58c0-.113-.02-.26-.06-.44a1.267 1.267 0 0 0-.26-.52 1.482 1.482 0 0 0-.55-.44c-.24-.127-.563-.19-.97-.19-.333 0-.61.037-.83.11-.22.073-.4.17-.54.29-.14.12-.25.26-.33.42a3.02 3.02 0 0 0-.18.48h-.75c.087-.62.357-1.107.81-1.46.454-.353 1.064-.52 1.83-.5.854.02 1.487.227 1.9.62.42.387.63.983.63 1.79v4.08h-.62l-.06-.75c-.32.32-.703.55-1.15.69-.446.14-.953.21-1.52.21-.306 0-.59-.037-.85-.11a1.75 1.75 0 0 1-.66-.35 1.573 1.573 0 0 1-.44-.6c-.1-.24-.15-.53-.15-.87Zm2.24 1.27c.394 0 .744-.05 1.05-.15.314-.093.577-.223.79-.39.22-.167.387-.36.5-.58a1.5 1.5 0 0 0 .17-.7v-.67h-2.33c-.333 0-.61.037-.83.11-.22.067-.396.157-.53.27a.933.933 0 0 0-.28.39c-.053.14-.08.287-.08.44 0 .14.017.283.05.43.04.153.114.293.22.42.114.127.27.23.47.31.2.08.467.12.8.12Zm9.804-7.85v8.36h-.58l-.12-.81v-.09c-.22.3-.506.55-.86.75-.353.2-.776.3-1.27.3-.48 0-.893-.067-1.24-.2-.34-.127-.62-.31-.84-.55-.22-.24-.383-.53-.49-.87-.1-.34-.15-.72-.15-1.14v-1.14c0-.42.057-.797.17-1.13.12-.34.294-.627.52-.86.234-.24.52-.423.86-.55.34-.133.737-.2 1.19-.2.5 0 .924.087 1.27.26.347.173.627.397.84.67v-2.8h.7Zm-.7 4.58c0-.26-.043-.513-.13-.76a1.821 1.821 0 0 0-.39-.65 2.03 2.03 0 0 0-1.52-.64c-.393 0-.726.057-1 .17a1.708 1.708 0 0 0-.65.44c-.166.18-.286.39-.36.63-.066.24-.1.49-.1.75v1.33c0 .42.06.76.18 1.02s.277.46.47.6c.194.147.407.247.64.3.234.053.467.08.7.08a2.277 2.277 0 0 0 1.43-.52c.214-.173.387-.39.52-.65.14-.26.21-.563.21-.91v-1.19Zm2.732 3.78h-.75V35.6h.75v6.26Zm-.85-7.19v-.9h.95v.9h-.95Zm2.131 7.19v-8.18h.7v8.18h-.7Zm3.063 2.1 1.2-2.8-2.72-5.56h.81l2.28 4.69 2.03-4.69h.8l-3.62 8.36h-.78Z" fill="#1A1E21"/></svg>